<?xml version="1.0" encoding="utf-8"?>
<!-- Generator: Adobe Illustrator 17.1.0, SVG Export Plug-In . SVG Version: 6.00 Build 0)  -->
<!DOCTYPE svg PUBLIC "-//W3C//DTD SVG 1.1//EN" "http://www.w3.org/Graphics/SVG/1.1/DTD/svg11.dtd">
<svg version="1.1" id="Слой_1" xmlns="http://www.w3.org/2000/svg" xmlns:xlink="http://www.w3.org/1999/xlink" x="0px" y="0px"
	 viewBox="0 0 28 27.6" enable-background="new 0 0 28 27.6" xml:space="preserve">
<g>
	<path fill="#1C4688" d="M5.9,2.7C4.9,3.4,4,4.2,3.3,5.2l2,1.8c0.7-0.8,1.4-1.5,2.3-2.1L5.9,2.7z"/>
	<path fill="#E12026" d="M2.2,6.7C1.5,7.8,1,9,0.6,10.3l2.6,0.6C3.4,10,3.9,9,4.4,8.2L2.2,6.7z"/>
	<path fill="#C0C0E5" d="M0.1,14c0,7.7,6.2,13.5,13.9,13.5c7.7,0,13.9-5.9,13.9-13.5c0-7.7-6.2-13.9-13.9-13.9c-0.4,0-0.8,0-1.2,0.1
		l0.1,2.6c0.4,0,0.8,0,1.2,0c6.2,0,11.2,5,11.2,11.2c0,6.2-5,10.9-11.2,10.9C7.8,24.9,2.8,20.2,2.8,14c0-0.6,0.1-1.3,0.2-1.9l-2.7,0
		C0.2,12.7,0.1,13.3,0.1,14z"/>
	<linearGradient id="SVGID_1_" gradientUnits="userSpaceOnUse" x1="0.2479" y1="13.8138" x2="27.7075" y2="13.8138">
		<stop  offset="0" style="stop-color:#D2DCEA"/>
		<stop  offset="0.5454" style="stop-color:#E2E7EE"/>
		<stop  offset="1" style="stop-color:#F2F3F3"/>
	</linearGradient>
	<path fill="url(#SVGID_1_)" d="M14,27.4C6.4,27.4,0.2,21.6,0.2,14c0-0.6,0-1.2,0.1-1.8l2.4,0c-0.1,0.6-0.1,1.3-0.1,1.8
		c0,6.3,5.1,11,11.4,11c6.3,0,11.4-4.8,11.4-11c0-6.3-5.1-11.4-11.4-11.4l-0.2,0h-0.2c-0.2,0-0.4,0-0.6,0l-0.1-2.3
		c0.4,0,0.7,0,1.1,0c7.6,0,13.7,6.2,13.7,13.7C27.7,21.6,21.5,27.4,14,27.4L14,27.4z"/>
	<linearGradient id="SVGID_2_" gradientUnits="userSpaceOnUse" x1="0.5132" y1="13.8138" x2="27.4436" y2="13.8138">
		<stop  offset="0" style="stop-color:#D2DCEA"/>
		<stop  offset="0.5454" style="stop-color:#E2E7EE"/>
		<stop  offset="1" style="stop-color:#F2F3F3"/>
	</linearGradient>
	<path fill="url(#SVGID_2_)" d="M14,27.1C6.4,27.1,0.5,21.3,0.5,14c0-0.5,0-1,0.1-1.5l1.9,0C2.4,13,2.4,13.5,2.4,14
		c0,6.3,5.1,11.3,11.6,11.3c6.5,0,11.6-5,11.6-11.3c0-6.4-5.2-11.6-11.6-11.6l-0.2,0h-0.2c-0.1,0-0.3,0-0.4,0l0-1.8
		c0.3,0,0.6,0,0.8,0c7.4,0,13.5,6,13.5,13.5C27.4,21.3,21.5,27.1,14,27.1L14,27.1z"/>
	<linearGradient id="SVGID_3_" gradientUnits="userSpaceOnUse" x1="16.4493" y1="-0.9051" x2="11.8892" y2="26.7094">
		<stop  offset="0" style="stop-color:#F1F3F5"/>
		<stop  offset="0.1046" style="stop-color:#E1E6EE"/>
		<stop  offset="0.1611" style="stop-color:#D7DDEA"/>
		<stop  offset="0.172" style="stop-color:#D8DFEB"/>
		<stop  offset="0.2518" style="stop-color:#DAE7F1"/>
		<stop  offset="0.3791" style="stop-color:#DBEAF3"/>
		<stop  offset="0.4923" style="stop-color:#D9E8EF"/>
		<stop  offset="0.5735" style="stop-color:#D4E3E7"/>
		<stop  offset="0.6154" style="stop-color:#D1DBE1"/>
		<stop  offset="0.7055" style="stop-color:#CCD0D8"/>
		<stop  offset="0.8021" style="stop-color:#CBCCD5"/>
		<stop  offset="1" style="stop-color:#CBD0D7"/>
	</linearGradient>
	<path fill="url(#SVGID_3_)" d="M14,26.9C6.5,26.9,0.7,21.2,0.7,14c0-0.4,0-0.9,0.1-1.3l1.5,0c-0.1,0.5-0.1,0.9-0.1,1.3
		c0,6.4,5.2,11.5,11.8,11.5c6.6,0,11.8-5,11.8-11.5c0-6.5-5.3-11.8-11.8-11.8l-0.2,0h-0.2c-0.1,0-0.1,0-0.2,0l0-1.4
		c0.2,0,0.4,0,0.6,0c7.3,0,13.3,6,13.3,13.3C27.2,21.2,21.4,26.9,14,26.9L14,26.9z"/>
	<linearGradient id="SVGID_4_" gradientUnits="userSpaceOnUse" x1="22.3953" y1="1.7062" x2="21.4057" y2="7.6988">
		<stop  offset="0" style="stop-color:#E2E7E9"/>
		<stop  offset="0.2087" style="stop-color:#D8DDE1"/>
		<stop  offset="0.5552" style="stop-color:#CED3D9"/>
		<stop  offset="1" style="stop-color:#CBD0D7"/>
	</linearGradient>
	<path fill="url(#SVGID_4_)" d="M25.8,8.4c0.1-0.1,0-0.5,0-0.5c-1.6-3.1-4.5-5.5-7.8-6.5L18,2.9c2.6,0.8,4.4,2.4,5.9,4.6
		c0,0,0.5,0.5,0.9,0.6C25.2,8.2,25.7,8.5,25.8,8.4z"/>
	<linearGradient id="SVGID_5_" gradientUnits="userSpaceOnUse" x1="7.3213" y1="2.2644" x2="11.4203" y2="2.2644">
		<stop  offset="0" style="stop-color:#FFFFFF"/>
		<stop  offset="1.550540e-002" style="stop-color:#FBFBFD"/>
		<stop  offset="0.1898" style="stop-color:#D3D3ED"/>
		<stop  offset="0.2802" style="stop-color:#C4C4E7"/>
		<stop  offset="0.3363" style="stop-color:#C8C8E8"/>
		<stop  offset="0.3883" style="stop-color:#D3D3ED"/>
		<stop  offset="0.4386" style="stop-color:#E6E5F4"/>
		<stop  offset="0.4725" style="stop-color:#F7F6FB"/>
		<stop  offset="0.5072" style="stop-color:#F5F3FA"/>
		<stop  offset="0.6319" style="stop-color:#F0EEF8"/>
		<stop  offset="0.6665" style="stop-color:#EDECF7"/>
		<stop  offset="0.8187" style="stop-color:#E4E3F3"/>
		<stop  offset="0.8339" style="stop-color:#E3E2F3"/>
		<stop  offset="0.978" style="stop-color:#DEDDF1"/>
	</linearGradient>
	<path fill="url(#SVGID_5_)" d="M11.4,3l-0.6-2.5C9.6,0.8,8.4,1.2,7.3,1.8l1.4,2.2C9.6,3.5,10.3,3.2,11.4,3z"/>
	<path fill="#FFFFFF" d="M8.7,3.9l-1.2-2c1-0.5,2.1-1,3.2-1.2l0.5,2.2C10.3,3.1,9.6,3.4,8.7,3.9L8.7,3.9z"/>
	<g>
		
			<radialGradient id="SVGID_6_" cx="262.5724" cy="-178.0797" r="4.0549" gradientTransform="matrix(0.9274 0.374 -0.374 0.9274 -301.224 70.1243)" gradientUnits="userSpaceOnUse">
			<stop  offset="0" style="stop-color:#FFFFFF"/>
			<stop  offset="0.9122" style="stop-color:#B0B0B0"/>
			<stop  offset="1" style="stop-color:#A8A8A8"/>
		</radialGradient>
		<path fill="url(#SVGID_6_)" d="M8.9,2.8L7.5,1.9c1-0.5,2.1-1,3.2-1.2l-0.4,1.6L8.9,2.8L8.9,2.8z"/>
		<path fill="#FFFFFE" d="M8.9,2.6L7.5,1.9c0.9-0.5,2-1,3.2-1.2l-0.5,1.4L8.9,2.6L8.9,2.6z"/>
	</g>
	<g>
		
			<radialGradient id="SVGID_7_" cx="-319.9645" cy="91.1721" r="1.9088" gradientTransform="matrix(0.9187 -0.3949 0.3949 0.9187 259.3892 -202.0586)" gradientUnits="userSpaceOnUse">
			<stop  offset="0" style="stop-color:#FFFFFF"/>
			<stop  offset="1" style="stop-color:#EC5355"/>
		</radialGradient>
		<path fill="url(#SVGID_7_)" d="M2.5,9.8l-1.7,0.4C1.2,9.1,1.6,8,2.2,7l0.9,1.4L2.5,9.8L2.5,9.8z"/>
		
			<radialGradient id="SVGID_8_" cx="-319.0436" cy="92.6508" r="2.8257" gradientTransform="matrix(0.9187 -0.3949 0.3949 0.9187 259.3892 -202.0586)" gradientUnits="userSpaceOnUse">
			<stop  offset="0.3626" style="stop-color:#FFFFFF"/>
			<stop  offset="1" style="stop-color:#DD0031"/>
		</radialGradient>
		<path fill="url(#SVGID_8_)" d="M2.4,9.7L1,10.1c0.3-1,0.7-1.9,1.2-2.8L3,8.4L2.4,9.7L2.4,9.7z"/>
		
			<linearGradient id="SVGID_9_" gradientUnits="userSpaceOnUse" x1="-319.4743" y1="92.6382" x2="-320.2662" y2="91.3734" gradientTransform="matrix(0.9187 -0.3949 0.3949 0.9187 259.3892 -202.0586)">
			<stop  offset="0" style="stop-color:#FFFFFF"/>
			<stop  offset="1" style="stop-color:#DD0031"/>
		</linearGradient>
		<path fill="url(#SVGID_9_)" d="M2.4,9.7L1.1,10c0.3-0.9,0.7-1.8,1.1-2.6l0.6,1.1L2.4,9.7L2.4,9.7z"/>
	</g>
	<linearGradient id="SVGID_10_" gradientUnits="userSpaceOnUse" x1="1.4774" y1="14.832" x2="1.4774" y2="13.0854">
		<stop  offset="0" style="stop-color:#C7CDDF"/>
		<stop  offset="0.264" style="stop-color:#CBD1E1"/>
		<stop  offset="0.5348" style="stop-color:#D7DCE8"/>
		<stop  offset="0.8076" style="stop-color:#ECEEF4"/>
		<stop  offset="1" style="stop-color:#FFFFFF"/>
	</linearGradient>
	<path fill="url(#SVGID_10_)" d="M2.2,14c0-0.4,0-0.9,0.1-1.3l-1.5,0c0,0.4-0.1,0.9-0.1,1.3c0,0,0.3,0.5,0.5,0.5
		c0.2,0,0.6,0,0.6-0.2C1.9,14.2,2.2,14,2.2,14z"/>
	<path fill="#A8A8A8" d="M3.1,5.2L3.1,5.2c0.9-1,1.8-1.9,2.8-2.6l0,0L6,2.5l1.7,2.3L7.5,4.9C6.7,5.5,6,6.2,5.3,7l0,0L5.2,7.1
		L3.1,5.2L3.1,5.2z M5.2,6.8c0.6-0.8,1.3-1.4,2.1-2l0,0L5.9,2.9C5,3.5,4.2,4.3,3.4,5.2l0,0L5.2,6.8L5.2,6.8z M5.8,2.8L5.8,2.8
		L5.8,2.8L5.8,2.8z"/>
	<path fill="#A8A8A8" d="M0.5,10.4l0-0.1C0.8,9,1.4,7.8,2.1,6.6l0,0l0.1-0.1l2.4,1.6L4.5,8.3C4,9,3.6,10,3.3,10.9l0,0l0,0.1
		L0.5,10.4L0.5,10.4z M3.1,10.7C3.4,9.9,3.8,9,4.2,8.2l0,0l-2-1.4c-0.6,1-1.1,2.2-1.5,3.4l0,0L3.1,10.7L3.1,10.7z M2.1,6.8L2.1,6.8
		L2.1,6.8L2.1,6.8z"/>
	<path fill="#666666" d="M0,14c0-0.7,0-1.3,0.1-1.9l0,0l0-0.1l2.9,0l0,0.1c-0.1,0.6-0.2,1.3-0.2,1.9l0,0c0,6.1,5,10.8,11.1,10.8l0,0
		c6.1,0,11.1-4.7,11.1-10.8l0,0c0-6.1-5-11.1-11.1-11.1l0,0c-0.3,0-0.7,0-1,0l0,0c-0.1,0-0.2,0-0.2,0l0,0l-0.1,0l0-2.8l0.1,0
		C13.1,0,13.6,0,14,0l0,0c7.7,0,14,6.3,14,14l0,0c0,7.7-6.3,13.6-14,13.6l0,0C6.3,27.6,0,21.7,0,14L0,14z M14,27.4
		c7.6,0,13.7-5.8,13.7-13.4l0,0c0-7.6-6.2-13.7-13.7-13.7l0,0c-0.4,0-0.8,0-1.1,0l0,0l0,2.3c0,0,0.1,0,0.1,0l0,0c0.3,0,0.7,0,1,0
		l0,0c6.3,0,11.3,5.1,11.3,11.3l0,0c0,6.3-5.1,11-11.3,11l0,0C7.7,25,2.7,20.2,2.6,14l0,0c0-0.6,0.1-1.2,0.1-1.8l0,0l-2.4,0
		c-0.1,0.6-0.1,1.2-0.1,1.8l0,0C0.2,21.6,6.4,27.4,14,27.4L14,27.4z"/>
	<path fill="#A8A8A8" d="M7.2,1.8l0.1-0.1c1.1-0.6,2.3-1.1,3.5-1.4l0,0l0.1,0l0.5,2.6l-0.1,0l0.1,0l0,0.1l-0.1,0
		c-1.1,0.2-1.7,0.5-2.6,1l0,0L8.7,4.1L7.2,1.8L7.2,1.8z M8.7,3.8c0.9-0.5,1.5-0.7,2.5-1l0,0l-0.5-2.3C9.6,0.9,8.5,1.3,7.5,1.9l0,0
		L8.7,3.8L8.7,3.8z"/>
	<g>
		<radialGradient id="SVGID_11_" cx="5.0142" cy="4.431" r="0.7199" gradientUnits="userSpaceOnUse">
			<stop  offset="4.265400e-002" style="stop-color:#FFFFFF"/>
			<stop  offset="0.145" style="stop-color:#CDD6E4"/>
			<stop  offset="0.2696" style="stop-color:#97AAC6"/>
			<stop  offset="0.3958" style="stop-color:#6983AD"/>
			<stop  offset="0.5208" style="stop-color:#436498"/>
			<stop  offset="0.6446" style="stop-color:#264C88"/>
			<stop  offset="0.7665" style="stop-color:#113B7C"/>
			<stop  offset="0.8859" style="stop-color:#043075"/>
			<stop  offset="1" style="stop-color:#002D73"/>
		</radialGradient>
		<path fill="url(#SVGID_11_)" d="M5.1,5.4L3.7,5.1c0.6-0.7,1.3-1.4,2.1-2L6,4.5L5.1,5.4L5.1,5.4z"/>
		<linearGradient id="SVGID_12_" gradientUnits="userSpaceOnUse" x1="4.885" y1="4.2893" x2="5.2749" y2="4.8933">
			<stop  offset="0" style="stop-color:#FFFFFF"/>
			<stop  offset="9.998417e-002" style="stop-color:#F9FBFC"/>
			<stop  offset="0.2285" style="stop-color:#E9EFF5"/>
			<stop  offset="0.3727" style="stop-color:#CFDBE8"/>
			<stop  offset="0.5283" style="stop-color:#AAC0D6"/>
			<stop  offset="0.6931" style="stop-color:#7B9DBF"/>
			<stop  offset="0.8629" style="stop-color:#4272A4"/>
			<stop  offset="1" style="stop-color:#0E4C8B"/>
		</linearGradient>
		<path fill="url(#SVGID_12_)" d="M5.1,5.3L3.8,5.1c0.6-0.7,1.2-1.3,2-1.8L6,4.4L5.1,5.3L5.1,5.3z"/>
	</g>
	<g>
		
			<radialGradient id="SVGID_13_" cx="-320.0496" cy="91.6551" r="1.0505" gradientTransform="matrix(0.9187 -0.3949 0.3949 0.9187 259.3892 -202.0586)" gradientUnits="userSpaceOnUse">
			<stop  offset="0" style="stop-color:#FFFFFF"/>
			<stop  offset="1" style="stop-color:#E12026"/>
		</radialGradient>
		<path fill="url(#SVGID_13_)" d="M2.5,9.8l-1.7,0.4C1.2,9.1,1.6,8,2.2,7l0.9,1.4L2.5,9.8L2.5,9.8z"/>
		
			<radialGradient id="SVGID_14_" cx="-319.9502" cy="91.1368" r="1.5978" gradientTransform="matrix(0.9187 -0.3949 0.3949 0.9187 259.3892 -202.0586)" gradientUnits="userSpaceOnUse">
			<stop  offset="0.3626" style="stop-color:#FFFFFF"/>
			<stop  offset="1" style="stop-color:#E12026"/>
		</radialGradient>
		<path fill="url(#SVGID_14_)" d="M2.4,9.7L1,10.1c0.3-1,0.7-1.9,1.2-2.8L3,8.4L2.4,9.7L2.4,9.7z"/>
		<linearGradient id="SVGID_15_" gradientUnits="userSpaceOnUse" x1="1.7519" y1="8.7097" x2="2.4944" y2="9.2131">
			<stop  offset="0" style="stop-color:#FFFFFF"/>
			<stop  offset="1" style="stop-color:#E12026"/>
		</linearGradient>
		<path fill="url(#SVGID_15_)" d="M2.4,9.7L1.1,10c0.3-0.9,0.7-1.8,1.1-2.6l0.6,1.1L2.4,9.7L2.4,9.7z"/>
	</g>
	<path fill="#FFFFFF" d="M16.5,21.5c-2,0-3.6-0.3-5.4-2.8c-1.8-2.5,0,0,0,0c0,0-1.8-2.5-3-4.3c-0.8-1.2-1.4-1.9-0.9-2.4l0,0
		c0.4-0.2,0.9-0.1,1.1,0.2l0,0l0,0c0,0,0,0,0,0l0,0c0,0,0,0,0,0l0,0c0,0,0,0,0,0l0,0c0,0,0.1,0.1,0.1,0.2l0,0
		c0.1,0.2,0.5,0.4,0.7,0.7l0.1,0.1c0.4,0.5,0.7,0.9,1.2,1.5l0.1,0.1c1,1.3,1.8,2.3,1.8,2.3l0,0c1.2,1.4,2.7,2,3.3,2.1
		c1.6,0.2,2.4-0.5,2.8-0.8c0.6-0.4,1.2-1.5,1.2-2.6l0,0c0-1.2-0.3-2.1-1.2-3.3l0,0l-2.9-4.1c-0.3-0.3-0.2-0.9,0.1-1.1l0,0
		c0.3-0.3,0.9-0.2,1.1,0.1l0,0l2.8,3.8c1.1,1.5,2.1,3.1,2.1,4.7l0,0c0,1.5-0.7,3-2,4l0,0C18.8,20.8,17.6,21.5,16.5,21.5L16.5,21.5
		C16.5,21.5,16.5,21.5,16.5,21.5L16.5,21.5z"/>
	
		<linearGradient id="SVGID_16_" gradientUnits="userSpaceOnUse" x1="25.0341" y1="15.0485" x2="26.5591" y2="17.6899" gradientTransform="matrix(0.9999 1.040000e-002 -1.040000e-002 0.9999 -7.8566 2.9713)">
		<stop  offset="0" style="stop-color:#D1D7E0"/>
		<stop  offset="0.3649" style="stop-color:#EAEAEB"/>
		<stop  offset="0.6066" style="stop-color:#E6E6EA"/>
		<stop  offset="0.7867" style="stop-color:#D8DBE0"/>
		<stop  offset="0.8957" style="stop-color:#E6E5E7"/>
		<stop  offset="1" style="stop-color:#FFFFFF"/>
	</linearGradient>
	<path fill="url(#SVGID_16_)" d="M16.3,21.2c-1.2,0-3.2-0.5-4.9-2.7c0,0,0,0,0,0c-0.1-0.1-1.8-2.4-2.9-4.1c-0.2-0.3-0.5-0.8-0.7-1
		c-0.5-0.6-0.4-0.9-0.3-1c0.1,0,0.1-0.1,0.2-0.1c0.2,0,0.3,0.1,0.4,0.2c0,0,0.2,0.1,0.2,0.1l0,0.2L8.7,13L9,13.4
		c0.4,0.5,0.8,1.1,1.4,1.7c0,0,1.8,2.4,1.8,2.5c1.1,1.4,2.8,2.1,3.5,2.2c0.2,0,0.3,0,0.5,0c1.3,0,2-0.5,2.4-0.8l0.1-0.1
		c0.6-0.5,1.3-1.6,1.4-2.9c0-1.3-0.5-2.2-1.3-3.5l-2.9-4.1c-0.1-0.1-0.1-0.2-0.1-0.4c0-0.1,0.1-0.2,0.2-0.3c0.1-0.1,0.2-0.1,0.3-0.1
		c0.1,0,0.3,0.1,0.4,0.2l3,3.7c1.1,1.4,1.8,3.1,1.8,4.6c0,1.4-0.7,2.8-1.8,3.8C18.9,20.3,17.5,21.2,16.3,21.2z"/>
	<path fill="#FFFFFF" d="M11,14.2L5.6,6.6C5.3,6.3,5.4,5.7,5.8,5.5l0,0c0.4-0.3,0.9-0.2,1.1,0.2l0,0l5.4,7.6
		c0.3,0.4,0.2,0.9-0.2,1.1l0,0c-0.2,0.1-0.3,0.2-0.5,0.1l0,0C11.4,14.6,11.1,14.4,11,14.2L11,14.2z"/>
	
		<linearGradient id="SVGID_17_" gradientUnits="userSpaceOnUse" x1="16.6761" y1="6.1077" x2="19.8307" y2="17.8882" gradientTransform="matrix(0.9999 1.040000e-002 -1.040000e-002 0.9999 -7.8566 2.9713)">
		<stop  offset="0" style="stop-color:#EDF6FC"/>
		<stop  offset="0.1982" style="stop-color:#E1E5E8"/>
		<stop  offset="0.2464" style="stop-color:#DDE0E2"/>
		<stop  offset="0.2592" style="stop-color:#DEE2E5"/>
		<stop  offset="0.3441" style="stop-color:#E4EDF3"/>
		<stop  offset="0.4499" style="stop-color:#E7F4FB"/>
		<stop  offset="0.6398" style="stop-color:#E8F6FD"/>
		<stop  offset="0.665" style="stop-color:#E1EDF3"/>
		<stop  offset="0.7465" style="stop-color:#CED5D8"/>
		<stop  offset="0.8292" style="stop-color:#C0C3C4"/>
		<stop  offset="0.9131" style="stop-color:#B8B8B9"/>
		<stop  offset="1" style="stop-color:#B5B5B5"/>
		<stop  offset="1" style="stop-color:#FFFFFF"/>
	</linearGradient>
	<path fill="url(#SVGID_17_)" d="M11.6,14.2L11.6,14.2c-0.2,0-0.3-0.1-0.4-0.2L5.8,6.4C5.8,6.3,5.7,6.2,5.8,6.1
		c0-0.1,0.1-0.2,0.2-0.3C6,5.7,6.1,5.7,6.2,5.7c0.2,0,0.3,0.1,0.4,0.2l5.4,7.6c0.2,0.2,0.1,0.5-0.1,0.7
		C11.8,14.2,11.7,14.2,11.6,14.2L11.6,14.2z"/>
	<path fill="#FFFFFF" d="M13.5,13.8l-4-5.7C9.2,7.8,9.3,7.3,9.7,7l0,0c0.4-0.3,0.9-0.2,1.1,0.2l0,0l4,5.7c0.3,0.4,0.2,0.9-0.2,1.1
		l0,0c-0.2,0.1-0.3,0.2-0.5,0.1l0,0C13.9,14.2,13.7,14,13.5,13.8L13.5,13.8z"/>
	
		<linearGradient id="SVGID_18_" gradientUnits="userSpaceOnUse" x1="19.1408" y1="3.7856" x2="22.1537" y2="14.7161" gradientTransform="matrix(0.9999 1.040000e-002 -1.040000e-002 0.9999 -7.8566 2.9713)">
		<stop  offset="0" style="stop-color:#EBF7FD"/>
		<stop  offset="0.1878" style="stop-color:#E8F4FA"/>
		<stop  offset="0.3516" style="stop-color:#DFE9F2"/>
		<stop  offset="0.4455" style="stop-color:#D6DFEA"/>
		<stop  offset="0.4899" style="stop-color:#E1EAF3"/>
		<stop  offset="0.5586" style="stop-color:#ECF5FA"/>
		<stop  offset="0.6398" style="stop-color:#EFF8FD"/>
		<stop  offset="0.7242" style="stop-color:#DAE0E3"/>
		<stop  offset="0.8289" style="stop-color:#C6C8CA"/>
		<stop  offset="0.924" style="stop-color:#B9BABA"/>
		<stop  offset="1" style="stop-color:#B5B5B5"/>
		<stop  offset="1" style="stop-color:#FFFFFF"/>
	</linearGradient>
	<path fill="url(#SVGID_18_)" d="M14.2,13.8L14.2,13.8c-0.2,0-0.3-0.1-0.4-0.2l-4-5.7C9.7,7.8,9.7,7.7,9.7,7.6
		c0-0.1,0.1-0.2,0.2-0.3c0.1-0.1,0.2-0.1,0.3-0.1c0.2,0,0.3,0.1,0.4,0.2l4,5.7c0.2,0.2,0.1,0.5-0.1,0.7
		C14.4,13.8,14.3,13.8,14.2,13.8L14.2,13.8z"/>
	<path fill="#FFFFFF" d="M15.8,13L12.3,8c-0.3-0.4-0.2-0.9,0.2-1.1l0,0c0.4-0.3,0.9-0.2,1.1,0.2l0,0l3.6,5.1
		c0.3,0.4,0.2,0.9-0.2,1.1l0,0c-0.2,0.1-0.3,0.2-0.5,0.1l0,0C16.2,13.4,16,13.2,15.8,13L15.8,13z"/>
	
		<linearGradient id="SVGID_19_" gradientUnits="userSpaceOnUse" x1="22.7008" y1="5.6631" x2="22.4475" y2="11.9369" gradientTransform="matrix(0.9999 1.040000e-002 -1.040000e-002 0.9999 -7.8566 2.9713)">
		<stop  offset="0" style="stop-color:#EBF7FD"/>
		<stop  offset="0.5187" style="stop-color:#DBDDE7"/>
		<stop  offset="0.554" style="stop-color:#E5EAF2"/>
		<stop  offset="0.6016" style="stop-color:#EDF5FA"/>
		<stop  offset="0.6578" style="stop-color:#EFF8FD"/>
		<stop  offset="0.7379" style="stop-color:#DAE0E3"/>
		<stop  offset="0.8374" style="stop-color:#C6C8CA"/>
		<stop  offset="0.9278" style="stop-color:#B9BABA"/>
		<stop  offset="1" style="stop-color:#B5B5B5"/>
		<stop  offset="1" style="stop-color:#FFFFFF"/>
	</linearGradient>
	<path fill="url(#SVGID_19_)" d="M16.5,13L16.5,13c-0.2,0-0.3-0.1-0.4-0.2l-3.5-5.1c-0.2-0.2-0.1-0.5,0.1-0.7C12.8,7,12.9,7,13,7
		c0.2,0,0.3,0.1,0.4,0.2l3.5,5.1c0.2,0.2,0.1,0.5-0.1,0.7C16.7,13,16.6,13,16.5,13L16.5,13z"/>
	
		<linearGradient id="SVGID_20_" gradientUnits="userSpaceOnUse" x1="16.8779" y1="10.7353" x2="14.7249" y2="7.4814" gradientTransform="matrix(0.9999 1.040000e-002 -1.040000e-002 0.9999 -7.8566 2.9713)">
		<stop  offset="0" style="stop-color:#FFF7F5"/>
		<stop  offset="0.4973" style="stop-color:#F9FCFF"/>
		<stop  offset="0.6076" style="stop-color:#F2F5F8"/>
		<stop  offset="0.7695" style="stop-color:#DEE1E6"/>
		<stop  offset="0.8104" style="stop-color:#D8DBE0"/>
		<stop  offset="0.8957" style="stop-color:#E6E5E7"/>
		<stop  offset="1" style="stop-color:#FFFFFF"/>
	</linearGradient>
	<path fill="url(#SVGID_20_)" d="M8.9,13.5c-0.3-0.3-1.3-0.8-1.3-0.8c-0.5-0.6-0.3-0.4-0.2-0.5c0.1,0,0.1-0.1,0.2-0.1
		c0.2,0,0.3,0.1,0.5,0.2c0,0,0.1,0.1,0.2,0.1l0.1,0.2L8.7,13L9,13.3c0.5,0.7,0.4,0.5,0.8,0.9C9.7,14.2,9.2,13.8,8.9,13.5z"/>
	<path fill="#666666" d="M11,18.7c-0.9-1.2-1.6-2.5-2.8-4.2l0,0c-0.6-0.9-1.2-1.6-1.2-2.1l0,0c0-0.2,0.1-0.3,0.2-0.4l0,0
		c0.1-0.1,0.2-0.1,0.4-0.1l0,0c0.4,0,0.8,0.2,1.2,0.6l0,0c0.3,0.2,0.9,0.9,0.9,0.9l0,0c0.6,0.7,1,1.4,1,1.4l0,0
		c1,1.4,1.9,2.5,1.9,2.5l0,0c1.1,1.4,2.7,2,3.2,2l0,0c0.2,0,0.3,0,0.5,0l0,0c1.2,0,1.9-0.6,2.2-0.8l0,0c0.5-0.4,1.2-1.4,1.2-2.5l0,0
		c0,0,0,0,0,0l0,0c0-1.1-0.5-1.9-1.2-3.1l0,0l-2.9-4.1c-0.1-0.2-0.2-0.4-0.2-0.6l0,0c0-0.3,0.1-0.5,0.3-0.7l0,0
		c0.2-0.1,0.3-0.2,0.5-0.2l0,0c0.3,0,0.7,0.2,1,0.5l0,0l2.8,3.9c1.2,1.6,1.9,2.8,1.9,4.5l0,0c0,0,0,0,0,0l0,0c0,1.6-0.8,3.1-2,4.1
		l0,0c-0.9,0.7-2.1,1.4-3.3,1.4l0,0c0,0,0,0,0,0l0,0c-0.2,0-0.3,0-0.5,0l0,0C14.5,21.6,12.3,20.6,11,18.7L11,18.7z M16.5,21.5v-0.1
		h0c0,0,0,0,0,0l0,0c1.1,0,2.3-0.7,3.2-1.4l0,0c1.2-1,1.9-2.4,1.9-3.9l0,0c0,0,0,0,0,0l0,0c0-1.5-0.7-2.8-1.9-4.3l0,0l-2.8-3.9
		c-0.2-0.3-0.5-0.4-0.8-0.4l0,0c-0.2,0-0.3,0-0.4,0.1l0,0c-0.2,0.1-0.3,0.3-0.3,0.5l0,0c0,0.2,0.1,0.3,0.2,0.4l0,0l2.9,4.1
		c0.7,1.2,1.2,2.1,1.2,3.3l0,0c0,0,0,0,0,0l0,0c0,1.2-0.7,2.3-1.3,2.7l0,0c-0.3,0.2-1.1,0.9-2.4,0.9l0,0c-0.2,0-0.3,0-0.5,0l0,0
		c-0.6-0.1-2.2-0.7-3.4-2.1l0,0c0,0-0.8-1.1-1.9-2.5l0,0c0,0-0.5-0.7-1-1.4l0,0c0,0-0.6-0.7-0.8-0.9l0,0c-0.4-0.3-0.8-0.5-1.1-0.5
		l0,0c-0.1,0-0.2,0-0.2,0.1l0,0c-0.1,0.1-0.1,0.1-0.1,0.2l0,0c0,0.4,0.5,1.1,1.2,2l0,0c1.2,1.8,1.9,3,2.8,4.2l0,0
		c1.3,1.8,3.4,2.8,4.8,2.8l0,0c0.2,0,0.3,0,0.5,0l0,0L16.5,21.5L16.5,21.5z"/>
	<path fill="#666666" d="M11.6,14.7C11.6,14.7,11.6,14.7,11.6,14.7L11.6,14.7c-0.3,0-0.6-0.1-0.8-0.4l0,0l0.1-0.1l0.1-0.1
		c0.1,0.2,0.3,0.3,0.5,0.3l0,0c0,0,0,0,0,0l0,0c0.1,0,0.3,0,0.4-0.1l0,0c0.2-0.1,0.3-0.4,0.3-0.6l0,0c0-0.1,0-0.3-0.1-0.4l0,0
		L6.8,5.7C6.7,5.6,6.4,5.4,6.2,5.4l0,0c-0.1,0-0.3,0-0.4,0.1l0,0C5.6,5.7,5.5,5.9,5.5,6.1l0,0c0,0.1,0,0.3,0.1,0.4l0,0l5.4,7.6
		L11,14.2l-0.1,0.1L5.5,6.7C5.4,6.5,5.3,6.3,5.3,6.1l0,0c0-0.3,0.1-0.6,0.4-0.8l0,0C5.9,5.3,6,5.2,6.2,5.2l0,0
		c0.3,0,0.6,0.1,0.8,0.4l0,0l5.4,7.6c0.1,0.2,0.2,0.4,0.2,0.5l0,0c0,0.3-0.1,0.6-0.4,0.8l0,0C12,14.6,11.8,14.7,11.6,14.7L11.6,14.7
		C11.6,14.7,11.6,14.7,11.6,14.7L11.6,14.7z"/>
	<path fill="#666666" d="M14.2,14.3c-0.3,0-0.5-0.1-0.7-0.4l0,0l0.1-0.1l-0.1,0.1l-4-5.7C9.3,8,9.2,7.9,9.2,7.7l0,0
		c0-0.3,0.1-0.6,0.4-0.8l0,0c0.2-0.1,0.4-0.2,0.5-0.2l0,0c0.3,0,0.6,0.1,0.8,0.4l0,0l4,5.7c0.1,0.2,0.2,0.4,0.2,0.5l0,0
		c0,0.3-0.1,0.6-0.4,0.8l0,0C14.6,14.2,14.4,14.3,14.2,14.3L14.2,14.3C14.2,14.3,14.2,14.3,14.2,14.3L14.2,14.3z M14.2,14.1
		c0.1,0,0.3,0,0.4-0.1l0,0c0.2-0.1,0.3-0.4,0.3-0.6l0,0c0-0.1,0-0.3-0.1-0.4l0,0l-4-5.7C10.6,7.1,10.4,7,10.2,7l0,0
		C10,7,9.9,7,9.8,7.1l0,0C9.6,7.2,9.5,7.4,9.5,7.7l0,0c0,0.1,0,0.3,0.1,0.4l0,0l4,5.7h0C13.8,13.9,14,14.1,14.2,14.1L14.2,14.1
		C14.2,14.1,14.2,14.1,14.2,14.1L14.2,14.1C14.2,14.1,14.2,14.1,14.2,14.1L14.2,14.1z"/>
	<path fill="#666666" d="M16.5,13.5c-0.3,0-0.5-0.1-0.7-0.4l0,0l0.1-0.1l-0.1,0.1L12.2,8C12.1,7.9,12,7.7,12,7.5l0,0
		c0-0.3,0.1-0.6,0.4-0.8l0,0c0.2-0.1,0.4-0.2,0.5-0.2l0,0c0.3,0,0.6,0.1,0.8,0.4l0,0l3.5,5.1c0.1,0.2,0.2,0.4,0.2,0.5l0,0
		c0,0.3-0.1,0.6-0.4,0.8l0,0C16.9,13.4,16.7,13.5,16.5,13.5L16.5,13.5C16.5,13.5,16.5,13.5,16.5,13.5L16.5,13.5z M16.5,13.2
		C16.5,13.2,16.5,13.2,16.5,13.2L16.5,13.2c0.2,0,0.3,0,0.4-0.1l0,0c0.2-0.1,0.3-0.4,0.3-0.6l0,0c0-0.1,0-0.3-0.1-0.4l0,0l-3.5-5.1
		c-0.1-0.2-0.4-0.3-0.6-0.3l0,0c-0.1,0-0.3,0-0.4,0.1l0,0c-0.2,0.1-0.3,0.4-0.3,0.6l0,0c0,0.1,0,0.3,0.1,0.4l0,0l3.6,5.1l0,0
		C16.1,13.1,16.3,13.2,16.5,13.2L16.5,13.2z"/>
</g>
</svg>
