<svg xmlns="http://www.w3.org/2000/svg" xmlns:xlink="http://www.w3.org/1999/xlink" viewBox="0 0 40 40" width="40"><defs><path id="a" d="M0 0h40v40H0z"/></defs><clipPath id="b"><use xlink:href="#a" overflow="visible"/></clipPath><path clip-path="url(#b)" d="M18 1c0-.6-.4-1-1-1H1C.5 0 0 .4 0 1v16c0 .6.4 1 1 1h16c.6 0 1-.4 1-1V1zM2 2h14v14H2V2zM40 1c0-.6-.4-1-1-1H23c-.6 0-1 .4-1 1v16c0 .6.4 1 1 1h16c.6 0 1-.4 1-1V1zM24 2h14v14H24V2zM18 23c0-.6-.4-1-1-1H1c-.6 0-1 .4-1 1v16c0 .6.4 1 1 1h16c.6 0 1-.4 1-1V23zM2 24h14v14H2V24zM40 23c0-.6-.4-1-1-1H23c-.6 0-1 .4-1 1v16c0 .6.4 1 1 1h16c.6 0 1-.4 1-1V23zm-16 1h14v14H24V24z"/><path clip-path="url(#b)" d="M8 8H4v2h4v4h2v-4h4V8h-4V4H8zM9 29.6l-2.8-2.9-1.4 1.5L7.6 31l-2.8 2.8 1.4 1.4L9 32.4l2.8 2.8 1.4-1.4-2.8-2.8 2.8-2.8-1.4-1.5zM26 8h10v2H26zM26 30h10v2H26zM31 26c.6 0 1 .4 1 1s-.4 1-1 1-1-.4-1-1 .4-1 1-1M31 34c.6 0 1 .4 1 1s-.4 1-1 1-1-.4-1-1 .4-1 1-1"/></svg>